<?xml version="1.0" encoding="utf-8"?>
<!-- Generator: Adobe Illustrator 18.1.1, SVG Export Plug-In . SVG Version: 6.00 Build 0)  -->
<svg version="1.1" id="Layer_1" xmlns="http://www.w3.org/2000/svg" xmlns:xlink="http://www.w3.org/1999/xlink" x="0px" y="0px"
	 viewBox="0 0 800 400" enable-background="new 0 0 800 400" xml:space="preserve">
<text transform="matrix(1 0 0 1 332.7007 86.3034)" font-family="'Futura-Medium'" font-size="30">Point Light</text>
<circle cx="406.5" cy="228.5" r="5.5"/>
<text transform="matrix(1 0 0 1 42.7007 86.3036)" font-family="'Futura-Medium'" font-size="30">Directional Light</text>
<g>
	<g>
		<line fill="none" stroke="#FFDD15" stroke-width="3" stroke-miterlimit="10" x1="90.5" y1="166.8" x2="70.9" y2="271.2"/>
		<g>
			<polygon fill="#FFDD15" points="67,292 60.5,260.4 71.2,269.6 84.5,264.9 			"/>
		</g>
	</g>
</g>
<g>
	<g>
		<line fill="none" stroke="#FFDD15" stroke-width="3" stroke-miterlimit="10" x1="121.7" y1="166.8" x2="102.1" y2="271.2"/>
		<g>
			<polygon fill="#FFDD15" points="98.2,292 91.7,260.4 102.4,269.6 115.7,264.9 			"/>
		</g>
	</g>
</g>
<g>
	<g>
		<line fill="none" stroke="#FFDD15" stroke-width="3" stroke-miterlimit="10" x1="153" y1="166.8" x2="133.4" y2="271.2"/>
		<g>
			<polygon fill="#FFDD15" points="129.4,292 123,260.4 133.6,269.6 146.9,264.9 			"/>
		</g>
	</g>
</g>
<g>
	<g>
		<line fill="none" stroke="#FFDD15" stroke-width="3" stroke-miterlimit="10" x1="184.2" y1="166.8" x2="164.6" y2="271.2"/>
		<g>
			<polygon fill="#FFDD15" points="160.7,292 154.2,260.4 164.9,269.6 178.2,264.9 			"/>
		</g>
	</g>
</g>
<g>
	<g>
		<line fill="none" stroke="#FFDD15" stroke-width="3" stroke-miterlimit="10" x1="215.4" y1="166.8" x2="195.8" y2="271.2"/>
		<g>
			<polygon fill="#FFDD15" points="191.9,292 185.4,260.4 196.1,269.6 209.4,264.9 			"/>
		</g>
	</g>
</g>
<g>
	<g>
		<line fill="none" stroke="#FFDD15" stroke-width="3" stroke-miterlimit="10" x1="399.3" y1="242.3" x2="370.7" y2="310.2"/>
		<g>
			<polygon fill="#FFDD15" points="362.5,329.7 362.8,297.5 371.3,308.7 385.3,307 			"/>
		</g>
	</g>
</g>
<g>
	<g>
		<line fill="none" stroke="#FFDD15" stroke-width="3" stroke-miterlimit="10" x1="393.8" y1="221.7" x2="322.7" y2="202.1"/>
		<g>
			<polygon fill="#FFDD15" points="302.3,196.5 334.3,192.7 324.3,202.6 327.8,216.2 			"/>
		</g>
	</g>
</g>
<g>
	<g>
		<line fill="none" stroke="#FFDD15" stroke-width="3" stroke-miterlimit="10" x1="408.5" y1="215.5" x2="413.3" y2="141.9"/>
		<g>
			<polygon fill="#FFDD15" points="414.7,120.8 424.9,151.4 413.2,143.5 400.6,149.8 			"/>
		</g>
	</g>
</g>
<g>
	<g>
		<line fill="none" stroke="#FFDD15" stroke-width="3" stroke-miterlimit="10" x1="415.7" y1="239" x2="457.3" y2="299.9"/>
		<g>
			<polygon fill="#FFDD15" points="469.2,317.3 442.3,299.6 456.4,298.5 462.4,285.8 			"/>
		</g>
	</g>
</g>
<g>
	<g>
		<line fill="none" stroke="#FFDD15" stroke-width="3" stroke-miterlimit="10" x1="418.5" y1="220.9" x2="479.6" y2="179.7"/>
		<g>
			<polygon fill="#FFDD15" points="497.1,167.9 479.2,194.7 478.2,180.6 465.6,174.4 			"/>
		</g>
	</g>
</g>
<circle cx="641" cy="109" r="5.5"/>
<g>
	<g>
		<line fill="none" stroke="#231F20" stroke-width="3" stroke-miterlimit="10" x1="641" y1="109" x2="667.8" y2="248.4"/>
		<g>
			<polygon fill="#231F20" points="671.8,269.2 654.2,242.2 667.5,246.9 678.1,237.6 			"/>
		</g>
	</g>
</g>
<line fill="none" stroke="#231F20" stroke-width="3" stroke-miterlimit="10" x1="641" y1="109" x2="588" y2="269.2"/>
<line fill="none" stroke="#231F20" stroke-width="3" stroke-miterlimit="10" x1="641" y1="109" x2="749" y2="223"/>
<g>
	<g>
		<line fill="none" stroke="#FFDD15" stroke-width="3" stroke-miterlimit="10" x1="622.2" y1="222.4" x2="610.2" y2="295.1"/>
		<g>
			<polygon fill="#FFDD15" points="606.8,316 599.6,284.6 610.5,293.6 623.7,288.6 			"/>
		</g>
	</g>
</g>
<g>
	<g>
		<line fill="none" stroke="#FFDD15" stroke-width="3" stroke-miterlimit="10" x1="695" y1="209.1" x2="732.8" y2="272.4"/>
		<g>
			<polygon fill="#FFDD15" points="743.7,290.5 717.9,271.2 732,271 738.9,258.7 			"/>
		</g>
	</g>
</g>
<g>
	<g>
		<line fill="none" stroke="#FFDD15" stroke-width="3" stroke-miterlimit="10" x1="688.2" y1="250.6" x2="710.2" y2="320.9"/>
		<g>
			<polygon fill="#FFDD15" points="716.5,341.1 696,316.3 709.7,319.4 719.3,309 			"/>
		</g>
	</g>
</g>
<g>
	<g>
		<line fill="none" stroke="#FFDD15" stroke-width="3" stroke-miterlimit="10" x1="642.3" y1="259.4" x2="642.4" y2="333.1"/>
		<g>
			<polygon fill="#FFDD15" points="642.4,354.3 630.2,324.4 642.4,331.5 654.6,324.4 			"/>
		</g>
	</g>
</g>
<path fill="none" stroke="#020202" stroke-width="2" stroke-miterlimit="10" d="M689.5,168.1c-6.5,7.4-17,13.6-28.4,15"/>
<text transform="matrix(1 0 0 1 572.7007 86.3034)" font-family="'Futura-Medium'" font-size="30">Spot Light</text>
</svg>
